<?xml version="1.0" encoding="UTF-8" standalone="no"?>
<!-- Created with Inkscape (http://www.inkscape.org/) -->

<svg
   xmlns:dc="http://purl.org/dc/elements/1.1/"
   xmlns:cc="http://creativecommons.org/ns#"
   xmlns:rdf="http://www.w3.org/1999/02/22-rdf-syntax-ns#"
   xmlns:svg="http://www.w3.org/2000/svg"
   xmlns="http://www.w3.org/2000/svg"
   xmlns:sodipodi="http://sodipodi.sourceforge.net/DTD/sodipodi-0.dtd"
   xmlns:inkscape="http://www.inkscape.org/namespaces/inkscape"
   width="1366"
   height="768"
   id="svg2"
   version="1.1"
   inkscape:version="0.48.5 r10040"
   sodipodi:docname="LangfiKAGUI1.svg">
  <defs
     id="defs4" />
  <sodipodi:namedview
     id="base"
     pagecolor="#ffffff"
     bordercolor="#666666"
     borderopacity="1.0"
     inkscape:pageopacity="0.0"
     inkscape:pageshadow="2"
     inkscape:zoom="3.959798"
     inkscape:cx="75.074276"
     inkscape:cy="710.88355"
     inkscape:document-units="px"
     inkscape:current-layer="layer1"
     showgrid="false"
     inkscape:window-width="1366"
     inkscape:window-height="706"
     inkscape:window-x="-8"
     inkscape:window-y="-8"
     inkscape:window-maximized="1" />
  <metadata
     id="metadata7">
    <rdf:RDF>
      <cc:Work
         rdf:about="">
        <dc:format>image/svg+xml</dc:format>
        <dc:type
           rdf:resource="http://purl.org/dc/dcmitype/StillImage" />
        <dc:title />
      </cc:Work>
    </rdf:RDF>
  </metadata>
  <g
     inkscape:label="Layer 1"
     inkscape:groupmode="layer"
     id="layer1"
     transform="translate(0,-284.36218)">
    <path
       style="fill:#000000;fill-opacity:1;stroke:#000000;stroke-width:1px;stroke-linecap:butt;stroke-linejoin:miter;stroke-opacity:1"
       d="m 14.530813,388.52026 c 0,0 -9.2703752,-12.91169 -13.149807,-30.29513 -3.8794318,-17.38344 -2.36791968,-39.23863 19.195856,-57.12565 23.242921,-19.27986 47.569336,-18.87676 65.074867,-12.13846 17.505531,6.73829 29.200331,18.29655 29.200331,18.29655 L 1139.8267,305.9336 c 0,0 13.9286,1.07143 14.2857,12.85715 0.5192,17.13499 1.4285,577.85714 1.4285,577.85714 0,0 2.1428,17.14285 -10,17.14286 -18.6263,10e-6 -1111.428504,1.42857 -1111.428504,1.42857 0,0 -17.14286,5.71428 -15.71428,-18.57143 1.42857,-24.28572 -3.867303,-508.12763 -3.867303,-508.12763 z"
       id="path3018"
       inkscape:connector-curvature="0"
       sodipodi:nodetypes="csssccscscsc" />
  </g>
</svg>
